<?xml version="1.0" standalone="no"?>
<!DOCTYPE svg PUBLIC "-//W3C//DTD SVG 20010904//EN"
 "http://www.w3.org/TR/2001/REC-SVG-20010904/DTD/svg10.dtd">
<svg version="1.0" xmlns="http://www.w3.org/2000/svg"
 width="320.000000pt" height="320.000000pt" viewBox="0 0 320.000000 320.000000"
 preserveAspectRatio="xMidYMid meet">
<metadata>
Created by potrace 1.11, written by Peter Selinger 2001-2013
</metadata>
<g transform="translate(0.000000,320.000000) scale(0.100000,-0.100000)"
fill="#000000" stroke="none">
<path d="M2766 2664 c-360 -46 -878 -304 -1319 -656 l-68 -54 -62 12 c-174 37
-455 39 -647 5 -229 -39 -402 -114 -507 -218 -66 -65 -93 -125 -93 -204 0 -79
73 -181 159 -221 61 -29 201 -32 227 -6 16 16 16 20 -1 73 -54 172 56 317 284
374 98 25 150 32 236 33 149 1 217 -2 213 -11 -1 -5 -48 -56 -103 -113 -304
-315 -472 -618 -488 -882 -10 -156 57 -281 161 -305 36 -7 56 -5 105 11 73 24
182 77 242 118 l42 29 -3 108 c-8 256 94 529 307 828 32 44 70 95 86 113 l28
32 90 -34 c50 -18 130 -52 180 -74 96 -44 104 -43 125 8 14 35 8 68 -18 98
-27 30 -120 85 -192 112 -33 12 -60 25 -60 29 0 16 164 167 321 296 121 99
411 260 547 304 112 36 258 55 301 39 59 -21 -15 -127 -275 -395 -219 -225
-340 -359 -405 -453 -13 -19 -26 -37 -29 -40 -13 -11 -89 -139 -119 -198 -17
-34 -46 -104 -63 -155 -27 -79 -32 -108 -34 -212 -4 -139 6 -193 52 -293 38
-84 122 -174 195 -210 122 -59 287 -74 400 -37 129 43 259 151 313 260 31 65
30 104 -6 150 -18 23 -25 26 -57 19 -103 -21 -165 2 -191 71 -15 38 -11 187 7
283 28 146 126 434 216 632 20 44 76 177 168 395 48 115 58 234 23 282 -45 62
-124 78 -288 57z"/>
</g>
</svg>
